<?xml version="1.0" standalone="no"?>
<!DOCTYPE svg PUBLIC "-//W3C//DTD SVG 20010904//EN"
 "http://www.w3.org/TR/2001/REC-SVG-20010904/DTD/svg10.dtd">
<svg version="1.0" xmlns="http://www.w3.org/2000/svg"
 width="857.000000pt" height="216.000000pt" viewBox="0 0 857.000000 216.000000"
 preserveAspectRatio="xMidYMid meet">

<g transform="translate(0.000000,216.000000) scale(0.100000,-0.100000)"
fill="#000000" stroke="none">
<path d="M1114 2066 c-124 -58 -178 -211 -115 -333 49 -97 167 -157 265 -134
141 33 223 148 202 282 -26 165 -200 256 -352 185z"/>
<path d="M6573 1845 c-228 -41 -435 -241 -489 -473 -24 -99 -15 -254 19 -352
140 -396 616 -542 963 -295 35 26 64 52 64 58 0 7 -38 50 -85 97 l-85 84 -27
-26 c-41 -39 -131 -77 -199 -84 -157 -17 -310 70 -381 214 -25 51 -28 68 -28
157 0 87 3 107 26 155 37 77 97 141 171 181 61 33 67 34 173 34 118 0 151 -10
233 -73 l33 -25 87 86 c84 84 86 86 68 106 -31 35 -138 99 -207 125 -49 18
-240 52 -261 45 -2 0 -35 -7 -75 -14z"/>
<path d="M7905 1846 c-113 -28 -200 -98 -251 -202 -24 -49 -30 -74 -33 -147
-3 -83 -1 -93 28 -152 55 -111 145 -175 324 -229 115 -35 160 -73 160 -135 0
-80 -95 -145 -181 -122 -42 12 -89 55 -100 93 l-7 25 -120 -26 c-137 -30 -136
-28 -91 -128 64 -139 236 -234 395 -219 134 12 264 103 323 225 28 58 32 76
32 146 -1 50 -7 93 -17 115 -48 108 -143 182 -292 229 -113 35 -146 52 -179
91 -53 63 -21 161 61 189 37 13 45 13 82 -4 42 -19 66 -46 76 -88 l7 -25 111
24 c62 13 115 24 120 24 13 0 8 38 -12 90 -40 105 -143 196 -256 225 -69 18
-111 18 -180 1z"/>
<path d="M7250 1230 l0 -620 120 0 120 0 0 620 0 620 -120 0 -120 0 0 -620z"/>
<path d="M1760 1230 l0 -570 80 0 80 0 0 245 0 245 183 2 182 3 3 73 3 72
-186 0 -185 0 0 175 0 175 245 0 245 0 0 75 0 75 -325 0 -325 0 0 -570z"/>
<path d="M2550 1230 l0 -570 325 0 325 0 0 75 0 75 -250 0 -250 0 0 170 0 170
185 0 185 0 0 75 0 75 -185 0 -185 0 0 175 0 175 250 0 250 0 0 75 0 75 -325
0 -325 0 0 -570z"/>
<path d="M3340 1230 l0 -571 248 3 c283 3 300 7 390 92 165 154 131 436 -62
533 -28 14 -52 26 -54 28 -1 1 12 30 30 65 77 148 21 313 -130 387 -55 27 -63
28 -239 31 l-183 4 0 -572z m382 395 c76 -57 82 -185 12 -246 -35 -30 -61 -38
-152 -45 l-92 -7 0 162 0 163 103 -4 c83 -2 107 -7 129 -23z m108 -449 c25
-13 59 -42 75 -66 26 -36 30 -50 30 -109 0 -57 -4 -74 -28 -109 -47 -72 -88
-86 -264 -90 l-153 -4 0 201 0 201 148 0 c136 0 151 -2 192 -24z"/>
<path d="M4190 1230 l0 -570 80 0 80 0 0 200 0 200 83 0 82 0 130 -200 130
-200 93 0 c88 0 92 1 82 19 -5 11 -64 103 -130 205 -66 103 -120 190 -120 194
0 5 17 14 38 21 55 20 106 60 141 111 47 69 61 121 61 225 0 82 -3 98 -31 153
-32 65 -97 130 -161 163 -78 40 -143 49 -355 49 l-203 0 0 -570z m475 390 c71
-36 108 -92 113 -173 5 -71 -9 -113 -54 -166 -49 -58 -91 -71 -241 -71 l-133
0 0 221 0 221 133 -4 c117 -3 138 -6 182 -28z"/>
<path d="M5492 1753 c-42 -98 -455 -1068 -459 -1081 -4 -10 13 -12 78 -10 l83
3 40 93 39 92 242 0 242 0 44 -95 43 -95 78 0 c43 0 78 2 78 5 0 10 -472 1120
-480 1128 -4 4 -16 -14 -28 -40z m132 -588 c41 -104 73 -191 72 -193 -2 -1
-84 -1 -183 0 l-179 3 90 228 91 228 17 -38 c10 -21 51 -123 92 -228z"/>
<path d="M1023 1407 l-132 -142 52 -50 c29 -27 101 -95 160 -150 93 -87 107
-105 107 -132 0 -40 -33 -80 -299 -358 l-200 -210 -1 -152 0 -153 240 0 240 0
0 150 0 150 208 221 c258 276 275 299 280 384 6 97 -12 121 -282 370 -129 118
-236 215 -238 215 -1 0 -62 -65 -135 -143z"/>
<path d="M7197 390 c-14 -23 -15 -30 -5 -30 8 0 19 5 26 12 9 9 12 9 12 0 0
-7 7 -12 16 -12 13 0 13 4 -3 30 -9 17 -20 30 -23 30 -3 0 -14 -13 -23 -30z"/>
<path d="M1830 323 c-23 -9 -60 -45 -76 -75 -43 -84 28 -198 124 -198 32 0
102 26 102 38 0 3 -7 13 -16 23 -15 17 -19 17 -46 3 -54 -28 -118 13 -118 76
0 62 48 92 118 76 31 -7 62 5 62 24 0 25 -107 49 -150 33z"/>
<path d="M2085 311 c-45 -27 -69 -69 -69 -122 0 -176 259 -187 280 -12 14 108
-118 192 -211 134z m130 -66 c65 -64 -12 -162 -100 -129 -25 10 -47 62 -40 95
13 60 95 80 140 34z"/>
<path d="M2448 324 c-10 -15 -118 -262 -118 -268 0 -3 13 -6 29 -6 21 0 32 6
36 20 9 30 97 29 116 -1 10 -14 22 -20 41 -17 l26 3 -52 115 c-28 63 -56 126
-62 139 -6 14 -13 21 -16 15z m22 -171 c0 -7 -9 -13 -20 -13 -23 0 -24 4 -9
32 9 17 13 18 20 7 5 -8 9 -20 9 -26z"/>
<path d="M2676 312 c-43 -30 -66 -71 -66 -121 0 -105 109 -173 200 -126 34 18
36 22 14 46 -14 15 -18 15 -45 2 -64 -32 -132 36 -107 107 14 43 63 64 108 48
26 -9 35 -8 48 6 15 15 15 17 0 33 -26 26 -116 29 -152 5z"/>
<path d="M2910 190 l0 -140 30 0 c30 0 30 1 30 55 l0 55 45 0 45 0 0 -55 c0
-54 0 -55 30 -55 l30 0 0 140 0 140 -30 0 c-30 0 -30 -1 -30 -55 l0 -55 -45 0
-45 0 0 55 c0 54 0 55 -30 55 l-30 0 0 -140z"/>
<path d="M3190 190 l0 -140 30 0 30 0 0 140 0 140 -30 0 -30 0 0 -140z"/>
<path d="M3320 192 l0 -142 30 0 30 0 0 77 0 77 63 -60 c34 -33 72 -68 85 -78
l22 -19 0 141 0 142 -30 0 -30 0 0 -77 0 -77 -57 55 c-32 30 -70 65 -85 79
l-28 23 0 -141z"/>
<path d="M3700 323 c-23 -9 -60 -45 -76 -75 -31 -60 -6 -139 58 -178 86 -52
208 11 208 108 l0 32 -70 0 -70 0 0 -30 c0 -28 3 -30 35 -30 43 0 45 -14 5
-35 -56 -29 -120 12 -120 75 0 61 53 97 114 78 34 -11 66 0 66 22 0 25 -107
49 -150 33z"/>
<path d="M4100 190 l0 -140 30 0 30 0 0 140 0 140 -30 0 -30 0 0 -140z"/>
<path d="M4230 191 l0 -141 30 0 30 0 0 77 0 77 73 -72 c40 -39 76 -72 80 -72
4 0 7 61 7 135 l0 135 -25 0 c-24 0 -25 -2 -25 -76 l0 -76 -85 77 -85 77 0
-141z"/>
<path d="M4520 300 c0 -28 3 -30 35 -30 l35 0 0 -110 0 -110 25 0 25 0 0 110
0 110 35 0 c32 0 35 2 35 30 l0 30 -95 0 -95 0 0 -30z"/>
<path d="M4780 190 l0 -140 80 0 80 0 0 30 c0 30 -1 30 -55 30 -52 0 -55 1
-55 24 0 22 5 25 43 28 37 3 42 6 42 28 0 22 -5 25 -42 28 -38 3 -43 6 -43 28
0 23 3 24 55 24 54 0 55 0 55 30 l0 30 -80 0 -80 0 0 -140z"/>
<path d="M5066 312 c-43 -30 -66 -71 -66 -121 0 -144 184 -193 260 -69 11 18
20 45 20 61 0 27 0 27 -70 27 l-70 0 0 -30 c0 -28 3 -30 36 -30 32 0 35 -2 23
-16 -38 -45 -112 -34 -135 21 -30 72 33 139 106 113 26 -9 35 -8 48 6 15 15
15 17 0 33 -26 26 -116 29 -152 5z"/>
<path d="M5344 317 c-2 -7 -3 -69 -2 -138 l3 -124 28 -3 c27 -3 27 -3 27 60
l0 63 41 -62 c35 -53 46 -63 70 -63 16 0 29 3 29 6 0 3 -12 25 -26 49 l-25 44
20 20 c36 36 31 96 -10 134 -25 23 -38 27 -89 27 -41 0 -62 -4 -66 -13z m125
-65 c14 -27 -5 -52 -39 -52 -28 0 -30 3 -30 35 0 32 2 35 30 35 18 0 33 -7 39
-18z"/>
<path d="M5920 190 l0 -140 85 0 85 0 0 30 c0 30 -1 30 -55 30 l-55 0 0 110 0
110 -30 0 -30 0 0 -140z"/>
<path d="M6315 305 c-48 -47 -25 -115 45 -136 45 -14 59 -38 34 -56 -14 -10
-22 -9 -44 4 -28 16 -60 13 -60 -7 0 -6 11 -22 25 -35 53 -54 145 -16 145 58
0 38 -17 58 -72 80 -26 11 -38 22 -38 35 0 26 25 35 44 16 10 -9 24 -12 40 -8
24 6 25 7 11 34 -25 48 -90 56 -130 15z"/>
<path d="M6530 190 l0 -140 25 0 25 0 0 140 0 140 -25 0 -25 0 0 -140z"/>
<path d="M6679 311 c-18 -14 -24 -29 -24 -61 0 -46 17 -64 79 -86 37 -13 45
-38 17 -53 -15 -8 -23 -7 -35 5 -18 17 -57 15 -63 -3 -8 -22 44 -63 77 -63 42
0 67 15 85 51 22 42 3 78 -57 107 -32 15 -48 29 -48 41 0 25 26 34 44 15 16
-15 66 -10 66 8 0 5 -11 20 -25 33 -30 31 -83 33 -116 6z"/>
<path d="M6880 300 c0 -28 3 -30 35 -30 l35 0 0 -110 0 -110 25 0 25 0 0 110
0 110 35 0 c32 0 35 2 35 30 l0 30 -95 0 -95 0 0 -30z"/>
<path d="M7140 190 l0 -140 80 0 80 0 0 30 c0 30 -1 30 -55 30 -52 0 -55 1
-55 24 0 22 5 25 43 28 38 3 42 6 45 31 3 26 2 27 -43 27 -45 0 -46 1 -43 28
3 25 7 27 56 30 48 3 52 5 52 28 0 23 -2 24 -80 24 l-80 0 0 -140z"/>
<path d="M7370 192 l0 -142 25 0 c22 0 24 4 27 57 l3 58 39 -54 40 -54 25 33
c64 83 60 82 61 18 0 -55 1 -58 25 -58 l25 0 0 142 0 142 -64 -88 c-35 -48
-67 -88 -71 -88 -4 0 -36 40 -71 88 l-64 88 0 -142z"/>
<path d="M7720 190 l0 -140 25 0 25 0 0 140 0 140 -25 0 -25 0 0 -140z"/>
<path d="M7903 310 c-90 -54 -82 -206 12 -246 44 -18 88 -18 125 1 34 18 36
22 14 46 -14 15 -18 16 -46 2 -85 -43 -161 92 -82 144 28 18 81 20 97 4 8 -8
16 -6 29 6 25 22 23 30 -12 48 -40 21 -99 19 -137 -5z"/>
<path d="M8200 323 c-23 -9 -60 -45 -76 -75 -42 -80 17 -185 109 -195 151 -17
218 174 91 258 -28 18 -91 24 -124 12z m107 -75 c51 -48 15 -138 -54 -138 -70
0 -106 78 -62 134 27 34 82 36 116 4z"/>
<path d="M5666 193 c-31 -71 -56 -131 -56 -135 0 -17 50 -7 60 12 16 29 104
29 120 0 10 -19 60 -29 60 -12 0 15 -113 262 -120 262 -4 0 -32 -57 -64 -127z
m78 -29 c9 -23 8 -24 -14 -24 -22 0 -23 1 -14 24 8 20 20 20 28 0z"/>
</g>
</svg>
